{"title":"DJ POL465 - ENJOY THE CLASSICS Vol. 4 (Videomix)","uid":12545465,"size":4289204791,"categoryP":"video","categoryS":"music_videos","magnet":"?xt=urn:btih:4ec6e5eb861edddc881e046a39da265effb16ec8&amp;dn=DJ+POL465+-+ENJOY+THE+CLASSICS+Vol.+4+%28Videomix%29&amp;tr=udp%3A%2F%2Ftracker.leechers-paradise.org%3A6969&amp;tr=udp%3A%2F%2Fzer0day.ch%3A1337&amp;tr=udp%3A%2F%2Fopen.demonii.com%3A1337&amp;tr=udp%3A%2F%2Ftracker.coppersurfer.tk%3A6969&amp;tr=udp%3A%2F%2Fexodus.desync.com%3A6969","seeders":1,"leechers":0,"uploader":"megalight","files":3,"time":1444466781,"description":"DJ POL465 – Enjoy The Classics 4 (Videomix)\r\n\r\n\r\n\r\n\r\nFormat : MPEG-4\r\nFormat profile : Base Media / Version 2\r\nFile size : 3.99 GiB\r\nDuration : 1h 30mn\r\nOverall bit rate mode : Variable\r\nOverall bit rate : 6 344 Kbps\r\n\r\nVideo\r\nID : 2\r\nFormat : AVC\r\nFormat/Info : Advanced Video Codec\r\nFormat profile :   \r\nFormat settings, CABAC : Yes\r\nFormat settings, ReFrames : 9 frames\r\nDuration : 1h 30mn\r\nBit rate mode : Variable\r\nBit rate : 5 955 Kbps\r\nMaximum bit rate : 8 000 Kbps\r\nWidth : 1 440 pixels\r\nHeight : 810 pixels\r\nDisplay aspect ratio : 16:9\r\nFrame rate mode : Constant\r\nFrame rate : 25.000 fps\r\nScan type : Progressive\r\nStream size : 3.75 GiB (94%)\r\n\r\nAudio\r\nFormat : AAC\r\nDuration : 1h 30mn\r\nBit rate mode : Constant\r\nBit rate : 384 Kbps\r\nOriginal Channel count : 2 channels\r\nChannel positions : Front: L R\r\nSampling rate : 48.0 KHz\r\nStream size : 248 MiB (6%)","torrent":{"xt":"urn:btih:4ec6e5eb861edddc881e046a39da265effb16ec8","amp;dn":"DJ+POL465+-+ENJOY+THE+CLASSICS+Vol.+4+%28Videomix%29","amp;tr":["udp%3A%2F%2Ftracker.leechers-paradise.org%3A6969","udp%3A%2F%2Fzer0day.ch%3A1337","udp%3A%2F%2Fopen.demonii.com%3A1337","udp%3A%2F%2Ftracker.coppersurfer.tk%3A6969","udp%3A%2F%2Fexodus.desync.com%3A6969"],"infoHash":"4ec6e5eb861edddc881e046a39da265effb16ec8","infoHashBuffer":{"type":"Buffer","data":[78,198,229,235,134,30,221,220,136,30,4,106,57,218,38,94,255,177,110,200]},"announce":[],"urlList":[]}}